<svg xmlns="http://www.w3.org/2000/svg" viewBox="0 0 43.64 37.05">
    <defs>
        <style>.cls-1{fill:#7f4f29;stroke:#f1e9d0;stroke-miterlimit:10;stroke-width:2px;}</style>
    </defs>

    <g id="Capa_2" data-name="Capa 2">
        <g id="Capa_1-2" data-name="Capa 1">
            <polygon class="cls-1"
                points="10.32 19.69 12.84 24.8 18.48 25.62 14.4 29.6 15.36 35.22 10.32 32.57 5.27 35.22 6.23 29.6 2.15 25.62 7.79 24.8 10.32 19.69" />
            <polygon class="cls-1"
                points="33.33 19.26 35.85 24.37 41.49 25.19 37.41 29.17 38.38 34.79 33.33 32.14 28.28 34.79 29.24 29.17 25.16 25.19 30.8 24.37 33.33 19.26" />
            <polygon class="cls-1"
                points="22.33 2.26 24.85 7.37 30.49 8.19 26.41 12.17 27.38 17.79 22.33 15.14 17.28 17.79 18.24 12.17 14.16 8.19 19.8 7.37 22.33 2.26" />
        </g>
    </g>
</svg>