<!-- Generator: Adobe Illustrator 25.2.3, SVG Export Plug-In . SVG Version: 6.00 Build 0)  -->
<svg version="1.1" id="Capa_1" xmlns="http://www.w3.org/2000/svg"
	xmlns:xlink="http://www.w3.org/1999/xlink" x="0px" y="0px"
	viewBox="0 0 90 79" style="enable-background:new 0 0 90 79;" xml:space="preserve">
<style type="text/css">
	.st0{fill:#7f4f29;stroke:#f1e9d0;stroke-width:3;stroke-miterlimit:10;}
	.st1{opacity:0.75;}
</style>
<path class="st0" d="M45.8,65.4c-0.8,0-1.5-0.3-2-0.9l-4.5-5c-0.6-0.7-1.5-1.1-2.4-1.1H25.4c-6.4,0-11.6-5.2-11.6-11.6v0V24.7
	c0-0.6,0.1-1.2,0.1-1.8c0.9-5.7,5.8-9.9,11.5-9.9h41.7C77,13,77,22.3,77,23v23.9c0,6.4-5.2,11.6-11.6,11.6H54.5
	c-1,0-1.9,0.4-2.5,1.2l-4.2,4.9C47.4,65.1,46.7,65.4,45.8,65.4L45.8,65.4z"/>
<g>
	<g class="st1">
		<path class="st0" d="M45.8,65.4c-0.8,0-1.5-0.3-2-0.9l-4.5-5c-0.6-0.7-1.5-1.1-2.4-1.1H25.4c-6.4,0-11.6-5.2-11.6-11.6v0V24.7
			c0-0.6,0.1-1.2,0.1-1.8c0.9-5.7,5.8-9.9,11.5-9.9h41.7C77,13,77,22.3,77,23v23.9c0,6.4-5.2,11.6-11.6,11.6H54.5
			c-1,0-1.9,0.4-2.5,1.2l-4.2,4.9C47.4,65.1,46.7,65.4,45.8,65.4L45.8,65.4z"/>
	</g>
	
</g>
<g>
</g>
<g>

	<path d="M51.2,38.4H38.9c-2.4,0.2-3.8,1.8-4.3,4.4c-0.2,0.9,0.4,1.8,1.2,2c0.1,0,0.2,0,0.4,0h17.7c0.9,0,1.6-0.7,1.6-1.6
		c0-0.1,0-0.3,0-0.4C55,40.2,53.6,38.6,51.2,38.4z"/>
	<path d="M49.8,31.5c-0.1,6.3-9.4,6.3-9.5,0C40.4,25.2,49.7,25.2,49.8,31.5z"/>
</g>
</svg>